<?xml version="1.0" encoding="UTF-8"?>
<svg id="Layer_1" data-name="Layer 1" xmlns="http://www.w3.org/2000/svg" viewBox="0 0 1080 1080">
  <defs>
    <style>
      .cls-1 {
        fill: #6e2405;
      }

      .cls-2 {
        fill: aqua;
      }

      .cls-3 {
        fill: #020202;
      }

      .cls-4 {
        fill: blue;
      }

      .cls-5 {
        fill: #019543;
      }

      .cls-6 {
        fill: #fcee21;
      }
    </style>
  </defs>
  <path class="cls-3" d="m473.0535,1079.7656c-.2802-.1008-.5548-.2686-.8415-.293-14.4111-1.2229-14.9695-2.2469-7.8719-15.5013,4.4938-8.3921,11.405-13.0217,21.1415-12.9546,2.3823.0164,4.7704.1092,7.1463-.0154,9.3956-.4926,13.0686-7.4961,8.2473-15.3793-4.6524-7.6073-8.0546-16.2751-13.8776-22.8091-12.1825-13.6701-24.1187-28.3518-42.0847-34.7839-7.9958-2.8627-14.6099-7.8865-22.3029-11.0135-38.3325-15.5819-78.5566-18.5049-119.087-15.6531-16.7292,1.1771-33.2693,6.5372-49.7326,10.9382-17.1239,4.5777-32.025,14.3999-49.0127,18.8622-7.5254,1.9767-13.8795,6.0087-19.9696,10.2807-6.5487,4.5937-7.2146,1.8751-7.2244-4.1278-.0674-41.3869-.2444-82.7734-.3817-124.1601-.0286-8.6355-1.0069-17.4082.1907-25.8716,1.466-10.3598-3.8553-14.9816-11.8841-18.7596-22.5159-10.5948-41.881-26.0717-59.6725-42.8565-10.6774-10.0731-21.6116-21.1577-27.4964-35.5644-.7021-1.7188-2.9167-2.8198-4.4302-4.2073-6.6018-13.6104-13.1334-27.1893-18.5223-41.4104-11.9634-31.5705-12.5057-63.9439-10.6098-97.0269,1.1201-19.5456,5.7953-37.427,14.6082-54.7074,4.2512-8.3358,4.417-18.3831,9.7727-26.4466,2.731-4.1118,5.4357-8.241,8.1524-12.3623,1.039-.3875,2.7913-.536,3.0128-1.1974,5.6533-16.8762,18.6883-28.0839,30.6361-40.1071,8.7447-8.7998,18.8208-16.0293,28.3582-23.8994,4.7649-3.932,9.3352-6.8259,15.5473-8.7909,11.1058-3.5127,17.9846-13.68,25.9129-21.8201,4.6576-4.7819,8.5085-10.3525,12.692-15.5925,3.9531-4.9513,8.9782-6.4075,15.3514-6.7226,21.6148-1.0682,42.3973,4.0168,63.4945,7.0994,19.8142,2.8952,38.9863,8.4069,58.4777,12.5937,13.1169,2.8175,19.0934-1.1679,26.6222-12.5381,16.062-24.2578,23.4936-51.7388,29.9111-79.2773,3.9902-17.1222,8.2187-34.5953,8.2486-52.5206.0084-5.043,1.538-9.8392.331-15.1985-1.1517-5.1145-1.8564-5.3139-6.5307-3.4074-13.4474,5.4847-22.1838,16.3479-30.9402,26.8188-5.5988,6.6949-10.0825,14.633-11.9552,23.7052-1.176,5.6973-9.44,7.5458-14.3061,3.5178-2.5095-2.0772-5.4254-4.1838-6.8612-6.9501-7.2073-13.8861-19.6146-24.358-25.851-38.6828-5.6729-13.0303-10.9945-26.4203-12.8384-40.648-2.6408-20.377-1.2362-40.7208,3.5713-60.6462,5.6595-23.4563,15.4947-45.6949,32.881-62.1981,11.7769-11.1786,23.8067-23.8385,41.9111-27.1547,8.9253-1.6349,16.7166-8.5274,26.0381-10.3246,3.231-.6229,2.6169-2.3094,2.7828-4.3144,2.5732-31.0941,20.5689-45.0755,49.2348-45.2893,57.7964-.4311,115.6309-.8979,173.3822.864,17.8057.5432,35.6657,7.2229,51.9272,16.2811,16.6079,9.251,31.15,20.3263,42.2602,36.2506,12.1221,17.3744,20.3411,36.3623,26.2822,56.3413,7.298,24.5423,12.9574,49.5675,21.4146,73.7814,10.6072,30.3696,23.6922,59.6002,37.4962,88.6953,12.2594,25.8393,28.1272,49.2409,43.7837,72.6561,10.2534,15.3347,21.5355,30.6101,34.8528,43.8827.576.5741,1.156,1.9597,1.4506,1.8827,10.9066-2.8505,14.5882,4.9748,18.6087,12.4052,8.4743,15.6605,22.9819,23.5859,38.2027,31.3597,10.345,5.2836,19.0513,13.4714,26.9992,22.3827,5.3343,5.9808,13.1467,9.5769,18.1745,16.1641,9.5216,12.9349,19.8001,25.395,28.3131,38.9628,6.2382,9.9424,10.2425,21.3012,15.0905,32.0969,5.7483,12.8009,8.4951,26.6974,11.1535,40.1661,3.3132,16.7858,5.3358,34.2607,1.6213,51.6218-1.2812,5.9875-.8059,12.1811-1.6303,18.3323-4.0215,30.0063-15.0796,57.3934-29.9307,83.2581-6.2082,10.8121-15.0601,20.1118-22.7879,30.0385-.9833,1.263-1.5126,2.4887-1.3969,4.0369-7.8319,2.894-14.4902,8.173-19.2564,14.3639-6.4576,8.3881-15.2526,12.9749-23.5614,18.4025-8.9379,5.8385-18.338,10.9562-27.3496,16.7363-4.7878,3.0708-5.2782,6.2624-5.2744,10.8395.0417,50.056.0186,100.1122-.0061,150.1682-.0055,11.0376-2.1315,12.2371-12.5997,7.5887-19.5667-8.6883-38.7034-18.3522-59.2028-24.8905-19.1312-6.1021-38.9302-8.7265-58.5295-12.5187-16.5109-3.1947-33.1539-3.2133-49.4599-1.2669-17.949,2.1428-35.9513,3.7371-53.5497,10.3682-13.8028,5.201-26.2606,13.2524-40.3752,17.2612-7.2795,2.0676-8.8493,9.6325-14.567,12.9891-19.0736,11.1967-28.6696,29.995-38.4533,48.5395-3.4537,6.5462-.8364,10.5392,6.7916,10.4887,8.3756-.0554,16.1873,1.6403,23.5952,5.467,5.3238,2.7503,7.4632,7.3315,7.1036,13.023-.3509,5.5563-5.2708,7.1101-9.2786,8.2108-6.7648,1.8577-13.8057,2.0702-20.9414,1.9537-22.2839-.3639-44.5889-1.2711-66.8584.418m-25.6382-.0637,212.3692-660.1934c17.2474-2.9006,32.4992-11.9566,49.4386-15.9134,19.5863-4.5752,39.1862-8.9417,59.2269-11.0131,4.2522-1.467,8.6572-1.4738,13.087-1.5381,2.5414-.0368,5.5908,1.1194,7.4088-1.6553,2.0368-3.1083-1.1467-4.7477-2.4494-6.7331-7.2822-11.0984-16.4317-21.1585-23.199-32.2363-13.0739-21.4021-27.4763-42.1049-38.5232-64.7573-10.4291-21.3851-20.8304-42.7995-28.8893-65.1924-6.6699-18.5335-12.5038-37.3749-18.4097-56.1737-3.2941-10.485-7.3579-20.9942-8.6658-31.7844-3.1996-26.3938-16.218-48.6268-30.6914-69.3282-8.061-11.5297-22.5045-18.6161-36.3989-24.3966-18.7582-7.8041-38.4848-8.0351-58.1091-8.2281-46.1605-.4539-92.3282-.1788-138.493-.1982-.8935-.0004-1.7874-.0123-2.6804.0089-13.2461.3136-17.1992,4.3502-17.181,17.7079.0065,4.7581.2232,9.5159.344,14.2738-.9341,3.8113-2.0034,7.2423-6.8024,8.0909-13.7341,2.4287-26.4403,8.1945-39.2606,13.2743-11.1413,4.4146-22.9822,8.4733-31.2159,17.8662-12.9751,14.8018-25.3274,29.7941-31.8689,49.2007-5.6439,16.7439-4.8496,33.9485-5.0399,50.6289-.1512,13.2604,6.9622,26.6612,11.1821,39.894,2.8818,9.0368,7.6848,10.4918,13.2342,2.9256,12.5569-17.1203,30.1668-24.8459,49.7788-29.499,13.4586-3.1931,27.1177-3.2824,40.8852-2.4548,20.0884,1.2078,39.3559,4.9946,56.746,15.747-3.7887.9062-7.6761-1.4537-11.4379.3455-2.4306-2.3242-5.0427-1.4867-7.6669-.4405-9.7567-1.5176-19.6044-.2125-29.3602-.8865-8.6469-.5974-12.0437,1.8054-11.5373,11.2933.973,18.2323-1.6218,36.4089-4.498,54.3676-2.6982,16.8477-6.3952,33.5964-10.7588,50.0962-3.2245,12.1926-7.5292,24.2233-12.6315,35.7606-5.0718,11.4682-10.409,23.0011-19.4551,32.2709-1.662,1.703-4.9887,6.6586-1.5292,7.3246,7.8662,1.5142,13.6767,7.481,21.5155,8.4027,10.7488,7.6036,23.1073,12.6575,33.8928,19.8698,17.1705,11.4821,36.5052,20.1528,50.6662,35.8344,4.8351,5.3545,12.1657,7.4181,16.5472,12.967,11.355,14.3802,25.5528,26.2301,36.2521,41.1786,2.7828,3.8883,5.7867,4.4273,9.1977.1922,4.1696-5.1771,8.942-9.8654,13.1785-14.9926,19.0591-23.0668,41.6123-42.5252,65.7523-59.7391,19.067-13.5965,39.8224-24.9603,61.0628-35.1418,6.636-.3609,11.9219-3.9685,17.3562-7.2187Zm171.8764,206.0453c-.4999-24.7826-2.4927-49.6454-1.166-74.3298,2.2543-41.9408.2361-83.847,1.1634-125.7543.0481-2.1785.8181-5.1684-2.7129-5.6066-4.9312-.6119-10.0569-2.0218-14.8102-1.2678-15.8697,2.5171-31.9626,2.5334-47.8104,6.1263-18.4705,4.1874-37.3931,6.4821-55.7443,11.4268-19.1801,5.1682-37.3288,13.0748-55.6692,20.6102-32.5017,13.3537-60.7921,33.0592-87.1163,55.7798-22.9114,19.7751-41.2871,43.776-60.301,67.135-2.9716,3.6508-6.562,6.9007-7.2623,11.9247-3.6318.2264-5.1551-2.7586-6.9195-4.9472-7.1666-8.889-13.891-18.1395-21.1753-26.9279-18.6845-22.5424-38.3431-44.1676-62.287-61.349-13.6116-9.7672-26.9005-20.2845-41.5555-28.2052-12.4799-6.7451-26.072-11.9006-38.9563-17.9374-30.2157-14.1571-62.1868-20.9797-94.4774-27.0517-16.2633-3.0583-32.7269-5.1713-49.1732-7.0795-6.6949-.7768-14.264-1.5335-20.1355.8727-3.6339,1.4892-.2033,9.3575-1.5716,14.2148-.1608.5709-.4226,1.1133-.6375,1.6689-1.1238,1.2354-1.0097,2.465.0175,3.6903.1106,29.7689.2213,59.5378.332,89.3067-1.9662-.9922-2.5084.267-2.5082,1.7913.0002,1.5239.5415,2.7843,2.5077,1.7874-.0175,30.2359,1.1528,60.4829-.8471,90.7003-15.556,1.0894-27.5775-9.606-27.5448-24.5282.054-24.7172.159-49.4345.1725-74.1517.0119-21.7393-.1197-43.4786-.0819-65.2176.0099-5.6862.0559-10.0913-7.5448-5.1082-5.0925,3.3387-10.9887,5.4644-16.5617,8.0543-9.5517,4.439-13.5992,14.5447-21.2132,20.7447-18.1829,14.8061-31.9408,32.5627-40.2781,54.4978-5.7457,15.1168-13.1167,29.8268-16.9548,45.4098-6.3135,25.6332-6.594,52.013.7798,77.533,8.6255,29.8523,17.4703,59.9034,40.7601,82.7311,3.5049,3.4354,2.6996,10.2201,7.903,12.4181,8.2579,3.4883,14.017,9.5285,19.5607,16.2584,2.746,3.3337,6.6899,6.0067,10.5901,8.0075,17.7782,9.1202,35.7331,17.8959,53.6245,26.7954-2.9943,1.5692-2.5467,4.4366-2.5483,7.0451-.0263,41.7012.0566,83.4027-.1067,125.1032-.0228,5.825,1.6151,6.3405,6.6497,4.2542,12.3323-5.1103,24.53-11.261,37.419-14.1618,25.8337-5.8139,52.278-8.0897,78.803-7.9003,24.0163.1715,47.7623,2.8569,71.4397,7.3008,26.9117,5.0509,51.4051,16.637,73.4371,31.1932,21.888,14.4608,40.9454,33.7554,52.6957,58.478,6.3851,16.765,5.4153,16.3608,10.9265,23.2221.4438,1.0352.6129,2.6097,1.384,3.0024,2.1305,1.085,2.0006-.8959,2.5404-2.2173,13.4106-32.8251,32.0614-62.4199,61.7607-82.2814,22.0609-14.7536,45.8065-27.2781,73.135-31.442,22.6792-3.4554,45.2073-7.9507,68.226-6.6444,20.8314,1.1821,41.7366,2.506,62.3609,5.4864,20.1897,2.9176,39.9416,8.5975,59.1241,15.6638,8.9949,3.3136,9.1632,3.7909,9.1656-5.8039.0103-40.7658-.2234-81.5336.1725-122.2955.0734-7.5598-2.1697-10.2869-9.3892-9.1983,8.5152-5.6485,18.8744-6.1152,28.039-10.0165,25.9607-11.0517,47.5649-27.6785,66.154-48.8772,16.3776-18.6766,27.3231-40.4889,35.529-63.2191,10.7224-29.7006,12.0598-60.7769,7.212-92.2833-4.9071-31.8913-18.2279-59.9246-37.7014-84.8205-15.2543-19.5021-33.4587-36.2609-56.4263-47.2024-6.4764-3.0853-7.7845-3.4748-7.7326,4.3018.2862,42.8578.0531,85.719.2518,128.5778.0316,6.8261-1.5457,13.2244-4.8598,18.7167-4.942,8.1898-10.4256,16.6054-22.0565,15.9954Z"/>
  <path class="cls-2" d="m545.2799,664.9999c-.1216,75.0812.3685,150.1706-.6177,225.2405-.5084,38.6914,4.3141,77.6727-4.4788,116.0662,3.1738,18.4195,5.4952,39.0831-1.9279,34.0392-6.3675-4.3266-9.4111-18.3272-10.9265-23.2221-11.7503-24.7226-30.8077-44.0172-52.6957-58.478-22.032-14.5562-46.5253-26.1423-73.4371-31.1932-23.6774-4.4438-47.4233-7.1292-71.4397-7.3008-26.525-.1894-52.9693,2.0863-78.803,7.9003-12.889,2.9008-25.0867,9.0515-37.419,14.1618-5.0346,2.0863-6.6725,1.5708-6.6497-4.2542.1633-41.7005.0804-83.402.1067-125.1032.0016-2.6085-.446-5.4759,2.5481-7.0451,3.1071.6297,5.6194,2.6269,9.1562,2.6207,38.3932-.0679,76.7936.6183,115.1779.085,22.3501-.3103,38.3633-12.617,49.1174-31.5138,3.3371-5.8639,4.6237-12.5524,2.6236-20.0586-4.4945-16.8668-15.0983-28.0514-29.9638-35.8912-2.4339-1.2836-5.6696-2.6425-5.6169-5.0027.0405-1.8107,3.9395-2.0967,6.0841-3.0946,12.0516-5.6085,23.1741-13.0358,28.1219-25.834,5.7768-14.9424-5.9496-42.605-20.7254-48.9285-11.6841-5.0003-23.9176-8.8802-37.0844-8.7368-36.6008.399-73.2074.3188-109.8062.8228-6.2534.0861-9.2686-2.1371-10.2953-7.9128,1.9999-30.2174.8297-60.4643.8469-90.6875,0-1.1886.0004-2.39.0007-3.5914-.1107-29.7689-.2213-59.5378-.3314-89.2996,1.2934.3776,2.2332.1659,2.2807-1.425.0467-1.5656-.1335-2.931-2.2987-2.2724.215-.5556.4767-1.098.6375-1.6689,1.3683-4.8573-2.0622-12.7256,1.5716-14.2148,5.8714-2.4062,13.4406-1.6494,20.1355-.8727,16.4463,1.9083,32.9099,4.0213,49.1732,7.0795,32.2906,6.0719,64.2617,12.8946,94.4774,27.0517,12.8843,6.0368,26.4764,11.1923,38.9563,17.9374,14.6551,7.9207,27.944,18.438,41.5555,28.2052,23.9439,17.1813,43.6026,38.8066,62.287,61.349,7.2843,8.7883,14.0087,18.0388,21.1753,26.9279,1.7644,2.1886,3.2877,5.1736,6.9203,4.9474.3329,1.0157.665,2.0311.9969,3.0466-.5734,1.3494-.8327,2.6509.5638,3.7001.0031,19.6591.0062,39.3183.0093,58.9774"/>
  <path class="cls-4" d="m543.7165,591.8324c.6996-5.0241,4.2899-8.2741,7.2615-11.9248,19.0139-23.3589,37.3896-47.3599,60.301-67.135,26.3242-22.7206,54.6146-42.4261,87.1163-55.7798,18.3404-7.5353,36.4891-15.4419,55.6692-20.6102,18.3512-4.9447,37.2738-7.2395,55.7443-11.4268,15.8478-3.5929,31.9407-3.6091,47.8104-6.1263,4.7533-.754,9.879.6559,14.8102,1.2678,3.531.4382,2.761,3.428,2.7129,5.6066-.9273,41.9073,1.0909,83.8135-1.1634,125.7543-1.3267,24.6844.6662,49.5472,1.1659,74.3299-1.9589,4.5497-5.9082,4.1026-9.8287,4.0689-23.5221-.2025-47.0488-.6536-70.5664-.3764-19.0164.2241-38.1089-1.3855-57.0464,1.5468-29.8975,4.6291-50.4718,27.3122-47.1788,53.726,1.9615,15.7338,8.5507,19.7035,21.6934,11.0228,5.8435-3.8596,6.9479-1.8502,7.0417,3.9779.1301,8.0761-1.4076,16.1877,4.392,23.707,3.3314,4.3194-.1878,7.7015-5.5135,7.9425-2.9034.1314-6.1911-2.0679-8.6612.1499-9.0562,8.1306-17.4306,16.8387-18.9096,29.8047-1.261,11.0555,8.2682,16.3579,13.3039,23.8898,9.3284,13.9525,21.9193,21.4751,39.8986,20.1178,15.6685-1.1828,31.536.5803,47.3061.3627,25.2196-.348,50.4886,2.3416,75.6596-1.1131,7.2195-1.0886,9.4626,1.6385,9.3892,9.1983-.3959,40.7619-.1623,81.5297-.1725,122.2955-.0024,9.5948-.1708,9.1175-9.1656,5.8039-19.1825-7.0663-38.9345-12.7462-59.1241-15.6638-20.6243-2.9803-41.5295-4.3043-62.3609-5.4864-23.0188-1.3063-45.5468,3.189-68.226,6.6444-27.3285,4.1638-51.0741,16.6884-73.135,31.442-29.6993,19.8615-48.3502,49.4563-61.7607,82.2814-.5398,1.3214-.4098,3.3022-2.5404,2.2173-.771-.3927-.9402-1.9672-1.3831-3.0026,2.7855-11.2252,3.2359-22.5824,1.927-34.039,8.7929-38.3935,3.9704-77.3748,4.4788-116.0662.9862-75.0699.4962-150.1593.6177-225.2377"/>
  <path class="cls-6" d="m399.3627,426.7931c-7.8388-.9216-13.6493-6.8884-21.5155-8.4027-3.4595-.666-.1328-5.6216,1.5292-7.3246,9.046-9.2698,14.3832-20.8026,19.4551-32.2709,5.1023-11.5372,9.407-23.568,12.6315-35.7606,4.3636-16.4998,8.0606-33.2485,10.7588-50.0962,2.8763-17.9586,5.471-36.1353,4.498-54.3676-.5064-9.4879,2.8904-11.8906,11.5373-11.2933,9.7557.674,19.6035-.6311,29.3504.8792,2.3534,3.5053,4.9656,2.8118,7.6768.4478,3.7618-1.7993,7.6492.5606,11.4372-.3449,2.0134,4.8005,7.0869,5.0377,10.6028,5.0624,15.4906.1092,30.4089,2.8276,45.149,7.2968,17.9799,5.4516,35.1323,12.5789,49.9525,24.3801,4.2506,3.3847,7.8907,7.5361,13.3816,12.8586.2572-28.619,1.2863-54.6858-5.8617-80.3958-4.4361-15.9559-10.2614-31.0473-19.8694-44.6112-3.9183-5.5316-7.5088-11.2966-11.2138-16.9779-12.0165-18.4264-26.0938-35.202-44.1429-47.7831-28.617-19.9473-60.8363-27.9514-95.6362-25.5043-.1207-4.7579-.3374-9.5157-.3439-14.2738-.0182-13.3577,3.935-17.3943,17.181-17.7079.8931-.0211,1.7869-.0092,2.6804-.0089,46.1648.0195,92.3325-.2557,138.493.1982,19.6243.193,39.3509.424,58.1091,8.2281,13.8944,5.7805,28.3379,12.867,36.3989,24.3966,14.4735,20.7013,27.4919,42.9344,30.6914,69.3282,1.3079,10.7903,5.3717,21.2995,8.6658,31.7844,5.9059,18.7987,11.7398,37.6401,18.4097,56.1737,8.0589,22.393,18.4602,43.8074,28.8893,65.1924,11.0469,22.6524,25.4493,43.3553,38.5232,64.7573,6.7673,11.0778,15.9168,21.1379,23.199,32.2363,1.3027,1.9854,4.4862,3.6248,2.4494,6.7331-1.818,2.7747-4.8674,1.6185-7.4088,1.6553-4.4298.0643-8.8348.0711-13.0866,1.5381-.3265-1.1053-.3613-2.4397-1.0224-3.2828-23.9585-30.5568-50.7211-59.1252-67.1561-95.0009-.8836-1.9286-1.8284-4.0826-4.3683-3.5761-2.3866.4758-2.7846,2.9777-3.3616,4.889-3.8283,12.6816-7.4,25.4416-11.3161,38.0953-3.8257,12.3614-6.3794,25.0448-9.7759,37.4919-4.3674,16.005-9.548,31.7737-11.6654,48.3103-5.4343,3.2502-10.7201,6.8578-17.3614,7.2212-12.1747-33.8731-35.3827-61.5953-51.9021-93.0512-8.3446-15.8896-19.2009-30.4899-24.4265-47.9749-.5062-1.694-1.2609-3.4509-4.178-2.8233-2.3438,18.834-11.5793,35.5954-17.4403,53.4837-4.9303,15.0481-12.8076,28.8868-17.1877,44.044-6.8379,23.6614-16.288,46.4082-23.9205,69.7867-.5653,1.7319.0204,5.7457-3.5957,4.9961-2.5732-.5335-2.4839-3.5124-3.0232-5.8862-6.0107-26.4507-17.249-51.2207-24.9807-77.1315-3.0477-10.2136-8.8746-19.5795-11.8896-29.5981-5.2917-17.584-11.0681-34.953-17.3746-52.1735-.712-1.9442-1.3001-4.4486-3.6233-4.6708-2.917-.2788-3.5979,2.4579-4.6128,4.6204-4.4082,9.3919-8.2152,19.1561-13.5361,28.0063-6.5756,10.9371-10.38,23.466-18.6051,33.3243-5.4954,6.5864-10.643,13.2906-14.0849,21.1065-8.4889,19.2763-20.94,36.1492-32.1631,53.7705ZM682.9193,111.3036c-.1952-26.6002-28.7138-49.1661-59.5834-51.0118-19.5553-1.1693-46.3444,30.7242-45.2166,49.1945,2.046,33.5082,24.5494,51.916,53.7148,51.9665,28.4719.0493,51.8432-22.6337,51.0852-50.1491Z"/>
  <path class="cls-1" d="m385.6147,756.9445c2.0001,7.5061.7135,14.1947-2.6236,20.0586-10.754,18.8968-26.7672,31.2035-49.1174,31.5138-38.3843.5333-76.7847-.1529-115.1779-.085-3.5368.0062-6.0491-1.991-9.1562-2.6207-17.8912-8.8995-35.8461-17.6752-53.6243-26.7954-3.9001-2.0008-7.8441-4.6739-10.5901-8.0075-5.5437-6.7299-11.3028-12.7701-19.5607-16.2584-5.2034-2.198-4.3981-8.9827-7.903-12.4181-23.2898-22.8277-32.1346-52.8788-40.7601-82.7311-7.3738-25.5199-7.0932-51.8997-.7798-77.533,3.8381-15.583,11.2091-30.2931,16.9548-45.4098,8.3373-21.9351,22.0952-39.6917,40.2781-54.4978,7.614-6.2,11.6615-16.3057,21.2132-20.7447,5.573-2.5899,11.4692-4.7156,16.5617-8.0543,7.6007-4.9831,7.5547-.5779,7.5448,5.1082-.0378,21.7391.0938,43.4784.0819,65.2176-.0135,24.7172-.1186,49.4345-.1725,74.1517-.0326,14.9223,11.9888,25.6176,27.5448,24.5282,1.0268,5.7756,4.042,7.9989,10.2953,7.9128,36.5988-.504,73.2054-.4238,109.8062-.8228,13.1668-.1434,25.4003,3.7364,37.0844,8.7368,14.7758,6.3235,26.5022,33.9861,20.7254,48.9285"/>
  <path class="cls-1" d="m690.5244,684.7534c-3.293-26.4137,17.2813-49.0968,47.1788-53.726,18.9375-2.9322,38.03-1.3227,57.0464-1.5468,23.5175-.2772,47.0443.1739,70.5664.3764,3.9205.0337,7.8698.4808,9.8288-4.0689,11.6308.61,17.1145-7.8056,22.0565-15.9954,3.3141-5.4923,4.8915-11.8907,4.8598-18.7167-.1987-42.8588.0344-85.72-.2518-128.5778-.0519-7.7766,1.2562-7.387,7.7326-4.3018,22.9676,10.9415,41.1719,27.7003,56.4263,47.2024,19.4735,24.8958,32.7944,52.9291,37.7014,84.8205,4.8478,31.5064,3.5105,62.5827-7.212,92.2833-8.2059,22.7302-19.1514,44.5425-35.529,63.2191-18.5891,21.1987-40.1933,37.8255-66.154,48.8772-9.1645,3.9013-19.5238,4.368-28.039,10.0165-25.171,3.4547-50.44.7651-75.6596,1.1131-15.7701.2176-31.6376-1.5456-47.3061-.3627-17.9793,1.3573-30.5702-6.1653-39.8986-20.1178-5.0357-7.5319-14.5649-12.8343-13.3039-23.8898"/>
  <path class="cls-1" d="m429.0835,62.5851c34.7998-2.4471,67.0191,5.557,95.6361,25.5043,18.0491,12.581,32.1265,29.3567,44.1429,47.7831,3.705,5.6814,7.2954,11.4464,11.2138,16.9779,9.608,13.5638,15.4333,28.6552,19.8694,44.6112,7.148,25.71,6.1189,51.7768,5.8617,80.3958-5.491-5.3225-9.131-9.4738-13.3816-12.8586-14.8201-11.8012-31.9726-18.9285-49.9525-24.3801-14.7402-4.4693-29.6585-7.1876-45.149-7.2968-3.5159-.0248-8.5894-.2619-10.6028-5.0624-17.3895-10.753-36.657-14.5398-56.7454-15.7476-13.7674-.8277-27.4266-.7383-40.8852,2.4548-19.612,4.6531-37.2219,12.3788-49.7788,29.499-5.5494,7.5662-10.3525,6.1112-13.2342-2.9256-4.2199-13.2327-11.3334-26.6335-11.1821-39.894.1903-16.6804-.604-33.885,5.0399-50.6289,6.5414-19.4066,18.8938-34.3989,31.8689-49.2007,8.2338-9.3929,20.0746-13.4516,31.2159-17.8662,12.8203-5.0799,25.5265-10.8456,39.2606-13.2743,4.799-.8486,5.8684-4.2796,6.8024-8.0909Z"/>
  <path class="cls-1" d="m399.3627,426.7931c11.2231-17.6213,23.6742-34.4943,32.1631-53.7705,3.4419-7.8159,8.5895-14.52,14.0849-21.1065,8.2251-9.8583,12.0296-22.3872,18.6051-33.3243,5.3209-8.8502,9.1279-18.6144,13.5361-28.0063,1.015-2.1625,1.6959-4.8992,4.6128-4.6204,2.3232.2222,2.9113,2.7266,3.6233,4.6708,6.3065,17.2205,12.0829,34.5895,17.3746,52.1735,3.015,10.0186,8.8419,19.3845,11.8896,29.5981,7.7317,25.9108,18.97,50.6808,24.9807,77.1315.5394,2.3738.45,5.3527,3.0232,5.8862,3.6161.7496,3.0303-3.2642,3.5957-4.9961,7.6325-23.3785,17.0826-46.1253,23.9205-69.7867,4.3801-15.1571,12.2574-28.9958,17.1877-44.044,5.861-17.8884,15.0965-34.6497,17.4403-53.4837,2.9172-.6276,3.6718,1.1293,4.178,2.8233,5.2256,17.4849,16.0819,32.0852,24.4265,47.9749,16.5195,31.4559,39.7274,59.178,51.9021,93.0512-21.2352,10.179-41.9905,21.5428-61.0576,35.1393-24.14,17.2139-46.6932,36.6723-65.7523,59.7391-4.2364,5.1272-9.0088,9.8156-13.1785,14.9926-3.411,4.235-6.4149,3.6961-9.1977-.1922-10.6993-14.9485-24.8971-26.7984-36.2521-41.1786-4.3815-5.5489-11.7121-7.6125-16.5472-12.967-14.161-15.6817-33.4957-24.3524-50.6662-35.8344-10.7855-7.2123-23.1439-12.2662-33.8928-19.8698Z"/>
  <path class="cls-1" d="m703.2685,419.7429c2.1174-16.5366,7.2981-32.3053,11.6654-48.3103,3.3965-12.4471,5.9502-25.1305,9.7759-37.4919,3.9162-12.6537,7.4878-25.4137,11.3161-38.0953.577-1.9113.975-4.4132,3.3616-4.889,2.54-.5065,3.4847,1.6476,4.3683,3.5761,16.435,35.8757,43.1976,64.4441,67.1561,95.0009.6611.8432.696,2.1775,1.0224,3.2828-20.0411,2.0714-39.641,6.4379-59.2273,11.0131-16.9394,3.9568-32.1913,13.0128-49.4386,15.9134Z"/>
  <path class="cls-5" d="m207.1762,528.0879c-.0003,1.2014-.0007,2.4027-.0007,3.5914-1.966.9842-2.5073-.2761-2.5075-1.8001-.0002-1.5243.542-2.7834,2.5082-1.7913Z"/>
  <path class="cls-5" d="m206.8267,435.0909c2.1653-.6586,2.3454.7069,2.2987,2.2724-.0475,1.5909-.9872,1.8026-2.2807,1.425-1.0278-1.2324-1.1419-2.462-.0181-3.6974Z"/>
  <path class="cls-3" d="m682.9193,111.3036c.7579,27.5155-22.6134,50.1984-51.0852,50.1491-29.1654-.0505-51.6688-18.4583-53.7148-51.9665-1.1277-18.4703,25.6613-50.3637,45.2166-49.1945,30.8696,1.8457,59.3882,24.4116,59.5834,51.0118Zm-43.1425,33.4317c15.1149-.0393,22.6946-6.5801,24.1959-21.2948.7891-7.7339-2.3891-14.8987-4.8089-21.9048-1.8599-5.3852-8.2474-3.1219-12.6112-4.2227-14.1629-3.5725-20.5184.543-22.2067,14.6318-.5264,4.3927-.5253,8.9537-.0061,13.3479,1.8741,15.8628,4.888,19.47,15.4369,19.4426Z"/>
</svg>